Coordinates
version=1
nRows=17
nColumns=40
inDegrees=yes

Units are S.I. units (second, meters, Newtons, ...)
Angles are in degrees.

endheader
time	pelvis_tilt	pelvis_list	pelvis_rotation	pelvis_tx	pelvis_ty	pelvis_tz	hip_flexion_r	hip_adduction_r	hip_rotation_r	knee_angle_r	knee_angle_r_beta	ankle_angle_r	subtalar_angle_r	mtp_angle_r	hip_flexion_l	hip_adduction_l	hip_rotation_l	knee_angle_l	knee_angle_l_beta	ankle_angle_l	subtalar_angle_l	mtp_angle_l	lumbar_extension	lumbar_bending	lumbar_rotation	arm_flex_r	arm_add_r	arm_rot_r	elbow_flex_r	pro_sup_r	wrist_flex_r	wrist_dev_r	arm_flex_l	arm_add_l	arm_rot_l	elbow_flex_l	pro_sup_l	wrist_flex_l	wrist_dev_l
      0.00000000	     -3.55452552	     -0.69367954	      0.93357635	     -1.34977315	      0.88440846	     -1.34434566	     -1.31279719	      2.51317342	     -9.07321276	    -23.88497144	     -0.41687139	     15.39184311	      2.00196725	     -4.78098538	     32.52688825	      5.57935775	     14.85187287	    -25.27173047	     -0.44107490	      2.76433214	      6.87999586	     -0.00742304	     -2.64760981	     -0.27187203	      2.93780719	      5.36167150	    -10.59674193	     -9.83218081	     32.81733915	     89.95437384	      0.00000000	      0.00000000	     -4.27068748	      7.25571517	     18.33525917	     25.02437203	     89.95437384	      0.00000000	      0.00000000
      0.01000000	     -3.74171872	     -0.78109024	      0.73864584	     -1.34248062	      0.88373681	     -1.34600736	     -1.55977176	      2.40111827	     -8.99277229	    -24.00437543	     -0.41895539	     15.32986356	      2.01861941	     -4.77933939	     32.33953875	      5.39651876	     14.44419731	    -25.52937926	     -0.44557172	      2.73964655	      6.80145221	      0.01188362	     -2.31496571	     -0.21158078	      3.05231181	      5.11216720	    -10.62166698	     -9.81319545	     32.53571212	     89.95437384	      0.00000000	      0.00000000	     -4.32088841	      7.22395308	     18.28475352	     25.06093415	     89.95437384	      0.00000000	      0.00000000
      0.02000000	     -3.93910711	     -0.83389496	      0.63879661	     -1.33523763	      0.88296285	     -1.34783729	     -1.65450114	      2.25624522	     -8.81821859	    -24.39761170	     -0.42581865	     14.97603632	      1.97610208	     -4.69873161	     32.23001945	      5.17109773	     14.09949968	    -25.84889252	     -0.45114828	      2.58669655	      6.58677955	      0.01965697	     -2.01685961	     -0.20684662	      3.04276074	      4.72238458	    -10.63632489	     -9.78324595	     32.57414701	     89.95437384	      0.00000000	      0.00000000	     -4.46301683	      7.22255412	     18.23333960	     25.32096912	     89.95437384	      0.00000000	      0.00000000
      0.03000000	     -4.12228414	     -0.90481178	      0.54700575	     -1.32779331	      0.88234434	     -1.34964650	     -1.81743735	      2.14850010	     -8.67983207	    -24.70996574	     -0.43127026	     14.71445421	      1.95238363	     -4.63893278	     32.14646389	      5.00914137	     13.81866270	    -26.10077643	     -0.45554449	      2.40659708	      6.44646141	      0.04094621	     -1.69888122	     -0.18608919	      3.04765230	      4.35813080	    -10.64872364	     -9.76262443	     32.47925598	     89.95437384	      0.00000000	      0.00000000	     -4.55478622	      7.24024693	     18.18508919	     25.48756205	     89.95437384	      0.00000000	      0.00000000
      0.04000000	     -4.26170597	     -1.02520511	      0.48644386	     -1.32039138	      0.88216879	     -1.35141993	     -2.20400119	      2.16606443	     -8.36820420	    -24.58973145	     -0.42917178	     14.70365763	      2.13404935	     -4.69874718	     32.06992188	      4.95096943	     13.56263984	    -26.25084485	     -0.45816367	      2.01315966	      6.83493638	      0.14355543	     -1.39926488	     -0.12515058	      2.97121867	      4.39767577	    -10.52958503	     -9.95222941	     31.49420970	     89.95437384	      0.00000000	      0.00000000	     -4.37056048	      7.25533493	     18.14208131	     25.02455379	     89.95437384	      0.00000000	      0.00000000
      0.05000000	     -4.41817960	     -1.02568294	      0.44851124	     -1.31298654	      0.88190152	     -1.35348090	     -2.29943094	      1.99444992	     -8.17702318	    -25.04586050	     -0.43713273	     14.28950920	      2.06332163	     -4.60766690	     32.05715772	      4.80100666	     13.29235598	    -26.58242862	     -0.46395090	      1.82075439	      6.70375132	      0.15708557	     -1.14347314	     -0.18675498	      2.88615939	      3.97640505	    -10.52986860	     -9.94223493	     31.52623268	     89.95437384	      0.00000000	      0.00000000	     -4.46581445	      7.28779404	     18.09710497	     25.30017749	     89.95437384	      0.00000000	      0.00000000
      0.06000000	     -4.52186139	     -0.90439887	      0.42778345	     -1.30545005	      0.88197494	     -1.35560562	     -2.48526982	      1.71559301	     -7.90901325	    -25.41220355	     -0.44352662	     13.83875297	      1.86054565	     -4.54576751	     32.11992245	      4.59722449	     13.22457701	    -27.34335901	     -0.47723164	      1.33146754	      7.67063363	      0.28716477	     -0.88639693	     -0.39866466	      2.72271431	      4.02121691	    -10.32393078	    -10.22886838	     30.60657659	     89.95437384	      0.00000000	      0.00000000	     -4.29547093	      7.35101156	     18.04371088	     24.89705539	     89.95437384	      0.00000000	      0.00000000
      0.07000000	     -4.94840515	     -0.71435064	      0.48475073	     -1.29806293	      0.88171644	     -1.35805807	     -2.07790463	      1.38468015	     -7.53849368	    -26.21155895	     -0.45747801	     13.20514339	      0.89508649	     -4.51386089	     32.35955584	      3.96224057	     12.12910379	    -27.71444516	     -0.48370832	      1.12380116	     10.49677970	      0.53746546	     -0.29991483	     -0.66241841	      2.53747485	      3.71841539	    -10.09565236	    -11.01875054	     30.16834746	     89.95437384	      0.00000000	      0.00000000	     -4.27361869	      7.37332497	     18.18749920	     24.85248320	     89.95437384	      0.00000000	      0.00000000
      0.08000000	     -5.06437724	     -0.69084186	      0.50378648	     -1.29009675	      0.88188313	     -1.36027915	     -2.15694269	      1.19247810	     -7.34962735	    -26.77130676	     -0.46724745	     12.72587001	      0.85201437	     -4.40996086	     32.20524191	      3.86287853	     11.90991653	    -28.15159125	     -0.49133796	      0.97598302	     10.23185559	      0.53827119	     -0.02518649	     -0.75612093	      2.39188192	      3.16343015	    -10.09217565	    -10.98547449	     30.15869293	     89.95437384	      0.00000000	      0.00000000	     -4.39616123	      7.41684876	     18.12480148	     25.11507616	     89.95437384	      0.00000000	      0.00000000
      0.09000000	     -4.93313184	     -0.53954563	      0.45235856	     -1.28246740	      0.88249651	     -1.36238012	     -2.19566581	      0.84152280	     -7.18047974	    -27.84056491	     -0.48590952	     11.64357219	      0.52253579	     -4.21183920	     31.98573424	      3.72276955	     11.98940937	    -29.05032739	     -0.50702386	      1.06988139	     10.68850513	      0.57784546	     -0.06991319	     -0.98614405	      2.19974871	      3.05911309	     -9.95338438	    -11.12667740	     29.58632071	     89.95437384	      0.00000000	      0.00000000	     -4.25248919	      7.55025613	     17.92612934	     24.88654853	     89.95437384	      0.00000000	      0.00000000
      0.10000000	     -5.02822190	     -0.54999905	      0.51513917	     -1.27373614	      0.88288763	     -1.36451911	     -2.28649893	      0.74244953	     -6.97864097	    -28.44082956	     -0.49638612	     11.18243318	      0.46399626	     -4.11022071	     31.71341528	      3.61060005	     11.73459182	    -29.38377161	     -0.51284356	      0.96036491	     10.40822871	      0.57746448	      0.30714773	     -1.06233820	      2.05738813	      2.37303835	     -9.93247631	    -11.12682395	     29.53398801	     89.95437384	      0.00000000	      0.00000000	     -4.42138025	      7.61401773	     17.87947374	     25.13157612	     89.95437384	      0.00000000	      0.00000000
      0.11000000	     -4.81639838	     -0.41900976	      0.47779810	     -1.26637877	      0.88384654	     -1.36683173	     -2.04664422	      0.41603373	     -6.71732100	    -30.09671703	     -0.52528681	      9.60879602	     -0.17403255	     -3.79051216	     31.19913839	      3.23960533	     11.18552146	    -29.83527586	     -0.52072380	      1.29887348	     10.45979266	      0.57474456	      0.11620601	     -1.24523108	      1.83595262	      2.31698556	     -9.77721945	    -11.44587948	     29.00446746	     89.95437384	      0.00000000	      0.00000000	     -4.19384285	      7.72478423	     17.62641175	     24.92814766	     89.95437384	      0.00000000	      0.00000000
      0.12000000	     -4.78785833	     -0.18314038	      0.43483489	     -1.25829738	      0.88474251	     -1.36920067	     -1.70170457	     -0.08303827	     -6.78394501	    -31.53690598	     -0.55042285	      7.88156728	     -1.49164304	     -3.27749113	     30.62603207	      2.64491324	     10.58598771	    -29.89671974	     -0.52179620	      1.74624459	     10.93787506	      0.64879978	      0.27875294	     -1.55874642	      1.81540052	      2.05641019	     -9.58569768	    -12.07216355	     28.30058215	     89.95437384	      0.00000000	      0.00000000	     -3.98970566	      7.83079658	     17.40056029	     24.68374328	     89.95437384	      0.00000000	      0.00000000
      0.13000000	     -4.90832598	      0.09951731	      0.63579148	     -1.25079553	      0.88541865	     -1.37189976	     -1.06805861	     -0.40657927	     -6.33055077	    -33.13905446	     -0.57838561	      6.22564861	     -3.66673335	     -2.32369413	     30.28325329	      1.76491704	      9.55155592	    -29.90525074	     -0.52194509	      1.89680069	     12.46830518	      1.06934904	      0.48509338	     -1.92731674	      1.50593522	      1.64416463	     -9.35698564	    -12.81203148	     28.11866020	     89.95437384	      0.00000000	      0.00000000	     -3.84099948	      7.96615761	     17.13801644	     24.66887586	     89.95437384	      0.00000000	      0.00000000
      0.14000000	     -4.71295637	     -0.02293407	      0.83659139	     -1.24326696	      0.88635458	     -1.37423416	     -0.69365093	     -0.34660490	     -6.13393366	    -34.83508727	     -0.60798697	      5.06538732	     -3.69807792	     -2.10772014	     29.73867818	      1.66303712	      9.34994188	    -30.23290767	     -0.52766378	      2.08898657	     12.04565731	      1.04802756	      0.31231000	     -1.86209868	      1.04172926	      1.27255355	     -9.32084150	    -12.73474181	     28.11638515	     89.95437384	      0.00000000	      0.00000000	     -3.78283233	      8.10032046	     16.94226948	     24.87411224	     89.95437384	      0.00000000	      0.00000000
      0.15000000	     -4.70485306	      0.10290611	      0.81635684	     -1.23592456	      0.88703900	     -1.37666722	      0.23834277	     -0.83995603	     -6.57424981	    -36.98973986	     -0.64559275	      2.72459291	     -4.62661263	     -1.48792750	     29.23067908	      1.27635968	      9.16040021	    -30.32675603	     -0.52930174	      2.77899933	     12.10597431	      1.08702716	      0.40013075	     -2.02222549	      0.91727945	      1.02817797	     -9.32429888	    -12.71960071	     27.61853146	     89.95437384	      0.00000000	      0.00000000	     -3.56998750	      8.20445694	     16.59233712	     24.84307872	     89.95437384	      0.00000000	      0.00000000
      0.16000000	     -4.90531730	      0.26208191	      0.89671449	     -1.22905652	      0.88733573	     -1.37905484	      1.45715641	     -1.15809443	     -6.47616391	    -39.18266112	     -0.68386645	      0.43061596	     -6.31888335	     -0.43634821	     28.96718904	      0.75058175	      8.72837981	    -30.33289176	     -0.52940883	      3.10774821	     12.77151249	      1.38297470	      0.64419363	     -2.24234474	      0.62625604	      0.69412222	     -9.18502330	    -12.97472671	     27.55692468	     89.95437384	      0.00000000	      0.00000000	     -3.43178916	      8.41167820	     16.06497521	     24.95160924	     89.95437384	      0.00000000	      0.00000000
